<svg width="1304" height="727" viewBox="0 0 1304 727" fill="none" xmlns="http://www.w3.org/2000/svg">
<path d="M514.302 0.679108C512.187 1.34577 508.898 2.14578 507.018 2.54578C504.668 3.07911 504.198 3.61244 505.255 4.41245C506.43 5.21245 505.608 5.61244 503.14 5.61244C501.025 5.61244 499.263 4.94577 499.263 4.27911C499.263 2.54577 486.691 2.54577 485.751 4.14577C485.398 4.94577 486.103 6.01244 487.161 6.81244C488.923 8.01244 488.571 8.14577 485.163 8.14577C482.931 8.14577 478.818 7.61244 476.116 7.07911C473.061 6.41244 470.711 6.54577 470.006 7.34577C468.596 8.94577 455.907 9.61244 455.084 8.01244C454.144 6.41244 440.75 6.67911 439.927 8.27911C439.457 9.07911 438.047 9.34578 436.872 8.94578C435.58 8.41244 433.347 8.94577 431.82 10.1458C430.293 11.2124 426.415 12.4124 423.36 12.6791C420.188 13.0791 416.075 13.7458 414.078 14.4124L410.553 15.6124L415.253 16.2791L419.953 16.9458L415.84 19.7458C413.138 21.6124 408.791 22.9458 403.268 23.4791C398.686 23.8791 393.634 24.8124 392.224 25.4791L389.404 26.5458L392.106 27.4791C393.634 28.0124 398.334 28.9458 402.681 29.4791L410.553 30.4124L404.091 31.6124C400.096 32.2791 398.686 32.9458 400.331 33.2124C401.741 33.6124 402.916 34.4124 402.916 35.2124C402.916 36.2791 406.206 36.4124 413.373 35.8791C419.365 35.3458 426.768 35.6124 430.645 36.4124C437.812 37.8791 447.564 43.4791 447.564 46.0124C447.682 46.9458 449.209 49.7458 451.089 52.1458C453.674 55.6124 454.262 57.0791 453.087 58.0124C452.264 58.6791 453.204 58.8124 455.319 58.2791C457.669 57.7458 459.549 58.1458 460.607 59.3458C461.547 60.2791 463.191 61.4791 464.366 62.0124C468.009 63.6124 466.716 66.0124 462.604 65.0791C459.784 64.5458 459.197 64.6791 460.489 65.6124C461.429 66.2791 463.779 66.9458 465.659 66.9458C468.361 66.9458 468.714 67.2124 467.656 68.8124C466.834 69.8791 466.011 72.4124 465.776 74.5458C465.541 76.5458 465.306 78.5458 465.189 78.9458C465.189 79.3458 464.366 78.4124 463.426 77.0791C461.664 74.5458 461.664 74.5458 459.197 77.3458C456.494 80.6791 456.964 83.8791 460.842 89.8791C462.722 92.6791 463.896 93.3458 466.011 92.8124C468.949 91.8791 469.771 94.1458 466.951 95.4791C464.131 96.6791 464.836 98.1458 471.416 105.479C476.116 110.812 478.114 112.279 480.346 111.879C481.873 111.479 484.811 112.412 486.808 113.746C488.806 115.079 491.038 116.279 491.743 116.279C493.623 116.279 497.03 107.612 496.208 105.079C495.738 103.612 496.09 102.946 497.383 102.946C498.44 102.946 499.263 102.146 499.263 101.079C499.263 100.012 500.085 98.2791 501.025 97.0791C502.083 96.0124 502.67 94.4124 502.553 93.6124C502.083 91.4791 513.48 84.6791 515.36 86.0124C517.592 87.6124 525.817 83.7458 530.047 79.2124C532.397 76.6791 534.864 75.0791 535.569 75.4791C537.214 76.6791 555.191 72.9458 560.948 70.1458C565.648 68.0124 565.648 67.8791 562.711 66.6791C561.066 66.0124 558.598 65.7458 557.189 66.0124C554.134 66.6791 553.546 64.9458 556.249 63.7458C557.189 63.3458 558.011 62.5458 557.893 62.0124C557.424 59.0791 558.363 58.9458 562.006 61.4791C564.826 63.4791 566.706 64.0124 568.586 63.2124L571.288 62.1458L567.998 59.2124C566.236 57.6124 564.121 56.2791 563.298 56.2791C562.476 56.2791 561.183 55.3458 560.361 54.2791C559.421 53.0791 559.303 52.2791 560.126 52.2791C560.831 52.2791 561.771 52.8124 562.123 53.6124C563.063 55.3458 567.411 55.3458 567.411 53.6124C567.411 52.9458 566.118 52.0124 564.473 51.4791C559.303 50.0124 561.301 48.4124 567.763 48.9458C571.053 49.2124 572.933 49.2124 571.876 48.8124C568.821 47.7458 569.291 45.6124 572.581 45.6124C574.813 45.6124 575.283 45.0791 574.813 43.0791C574.343 41.2124 574.93 40.4124 577.045 40.0124C579.63 39.4791 579.63 39.3458 577.398 38.4124C568.703 34.6791 568.703 34.6791 573.755 33.0791C577.633 31.8791 578.103 31.3458 576.575 29.8791C575.518 28.9458 573.755 28.6791 572.581 29.2124C570.701 30.0124 570.701 29.8791 572.816 26.5458C573.99 24.6791 576.105 22.8124 577.28 22.4124C579.043 21.8791 579.278 21.3458 578.22 19.8791C576.34 17.3458 577.633 16.2791 582.333 16.2791C584.448 16.2791 586.21 15.7458 586.21 15.0791C586.21 14.5458 589.735 13.6124 594.082 13.2124C598.43 12.6791 602.425 11.6124 603.13 10.8124C604.892 8.81244 578.103 10.6791 571.288 12.9458C565.648 14.9458 564.356 13.3458 569.761 11.0791C571.758 10.4124 573.285 9.34577 573.285 8.81244C573.285 8.01244 570.231 8.27911 557.541 10.2791C554.134 10.8124 554.134 10.8124 556.836 9.61244C558.951 8.81244 555.779 8.41244 546.026 8.67911C527.814 9.07911 531.457 7.07911 550.491 6.27911C558.716 5.87911 565.648 5.34578 565.883 5.07911C566.118 4.81244 563.298 4.14578 559.538 3.61244C555.779 3.07911 552.489 2.14578 552.136 1.61244C551.314 0.145775 519.002 -0.654226 514.302 0.679108ZM552.136 62.9458C549.786 64.6791 548.259 64.6791 549.199 62.9458C549.551 62.1458 550.844 61.6124 551.901 61.6124C553.664 61.6124 553.664 61.8791 552.136 62.9458Z" fill="#427E1D"/>
<path d="M374.129 2.94588C370.957 3.61255 365.435 4.14588 361.91 4.14588C356.857 4.27922 355.8 4.67922 356.387 6.27922C356.975 8.27922 353.567 8.27922 344.52 6.14588C343.11 5.87922 341.583 6.14588 341.23 6.94588C340.878 7.61255 338.175 8.27922 335.356 8.27922C331.948 8.27922 330.068 8.94588 329.598 10.2792C328.776 12.9459 331.478 14.1459 336.531 13.2126C338.763 12.8126 340.643 12.9459 340.878 13.6126C341.23 14.8126 360.852 13.3459 366.492 11.7459C368.137 11.3459 368.725 11.2126 367.902 11.7459C367.197 12.1459 366.727 13.0792 367.08 13.6126C367.432 14.2792 364.495 15.2126 360.617 15.7459C354.39 16.5459 353.802 16.8126 355.565 18.4126C358.385 20.8126 356.975 20.6792 351.335 18.1459C348.868 17.0792 344.755 16.2792 342.288 16.5459C338.645 16.9459 338.175 17.2126 340.055 18.1459C341.348 18.6792 344.52 20.2792 347.105 21.7459L351.805 24.2792H343.933C339.468 24.2792 335.943 24.8126 335.943 25.3459C335.943 26.0126 337.588 26.2792 339.468 26.1459C341.7 26.0126 342.993 26.5459 342.993 27.6126C342.993 28.6792 343.933 29.7459 345.108 30.0126C346.165 30.4126 344.638 30.4126 341.583 30.0126C338.175 29.7459 335.943 30.0126 335.943 30.9459C335.943 31.6126 335.121 32.2792 334.181 32.2792C333.241 32.2792 332.418 32.8126 332.418 33.4792C332.418 34.6792 358.032 36.1459 362.262 35.2126C363.32 34.9459 364.142 34.0126 364.142 32.9459C364.142 30.6792 368.49 27.4792 373.307 26.2792C377.067 25.3459 377.184 25.2126 375.187 22.8126C373.307 20.4126 373.307 20.2792 376.244 20.2792C377.889 20.2792 379.652 19.6126 380.122 18.8126C380.592 17.8792 382.589 17.6126 385.644 18.1459C388.699 18.8126 391.166 18.4126 392.811 17.2126C394.104 16.1459 397.159 14.9459 399.509 14.4126C401.976 14.0126 404.443 12.6792 405.266 11.6126C405.971 10.6792 409.613 9.34588 413.256 8.94588C416.898 8.41255 421.01 7.74588 422.303 7.34588C424.653 6.54588 424.653 6.54588 422.303 5.61255C421.01 5.07922 413.608 4.27922 405.853 3.74588C398.099 3.34588 389.169 2.67922 385.879 2.41255C382.707 2.14588 377.419 2.41255 374.129 2.94588Z" fill="#427E1D"/>
<path d="M309.859 14.8125C307.274 17.7458 309.036 20.2792 313.854 20.2792C316.204 20.2792 316.909 20.8125 316.439 22.1458C315.381 25.0792 325.721 26.2792 331.243 24.0125C332.183 23.6125 334.886 22.6792 337.118 21.8792C340.173 20.9458 340.525 20.5458 338.528 20.4125C337.118 20.2792 335.591 19.3458 335.238 18.2792C334.768 16.9458 332.888 16.2792 329.951 16.2792C327.366 16.2792 323.371 15.3458 321.021 14.2792C315.616 11.7458 312.326 11.8792 309.859 14.8125Z" fill="#427E1D"/>
<path d="M990.045 13.2125C986.285 13.8791 986.402 16.6791 990.162 17.3458C991.572 17.6125 992.747 18.5458 992.747 19.6125C992.747 21.8791 1007.55 24.0125 1009.43 21.8791C1011.31 19.7458 1009.43 17.4791 1006.38 18.4125C1004.61 18.8125 1002.85 18.0125 1000.62 15.7458C997.33 12.2791 996.507 12.1458 990.045 13.2125Z" fill="#427E1D"/>
<path d="M722.271 17.2125C723.093 17.6125 724.151 17.4792 724.503 17.0792C724.973 16.6792 724.268 16.2792 722.976 16.4125C721.683 16.4125 721.331 16.8125 722.271 17.2125Z" fill="#427E1D"/>
<path d="M729.791 17.2124C728.381 17.4791 727.441 18.4124 727.793 19.0791C728.733 20.6791 742.128 20.6791 742.95 19.0791C744.243 16.8124 736.605 15.7458 729.791 17.2124Z" fill="#427E1D"/>
<path d="M697.949 20.2792L692.897 20.9458L695.364 23.6125C697.597 25.7458 698.419 25.8792 701.474 24.6792C703.471 23.7458 705.939 23.4792 706.879 23.8792C708.171 24.4125 708.524 24.1458 707.936 23.2125C706.409 20.4125 703.236 19.4792 697.949 20.2792Z" fill="#427E1D"/>
<path d="M708.406 20.0125C708.406 20.5458 708.994 21.7458 709.699 22.5458C710.639 23.6125 710.286 24.4125 708.524 25.6125C707.114 26.4125 706.291 27.6125 706.644 28.4125C707.114 29.0791 706.644 29.6125 705.821 29.6125C704.999 29.7458 705.821 30.6791 707.701 31.8791C710.639 33.6125 711.344 33.6125 712.401 32.1458C713.106 31.0791 715.456 28.5458 717.571 26.5458L721.566 22.9458L717.336 20.9458C712.754 18.8125 708.406 18.2791 708.406 20.0125Z" fill="#427E1D"/>
<path d="M277.312 23.7458C278.017 24.8124 279.897 25.6124 281.425 25.6124C282.835 25.6124 285.42 26.1458 287.065 26.9458C288.71 27.6124 290.119 27.7458 290.119 27.0791C290.119 25.6124 287.417 24.4124 280.955 23.0791C276.842 22.1458 276.255 22.2791 277.312 23.7458Z" fill="#427E1D"/>
<path d="M1015.42 23.6125C1013.54 25.3458 1014.13 25.4792 1020.95 25.6125C1028.82 25.6125 1029.41 23.8792 1021.89 22.5458C1019.18 22.1458 1016.83 22.5458 1015.42 23.6125Z" fill="#427E1D"/>
<path d="M301.634 26.5458C302.457 26.9458 303.514 26.8125 303.867 26.4125C304.337 26.0125 303.632 25.6125 302.339 25.7458C301.047 25.7458 300.694 26.1458 301.634 26.5458Z" fill="#427E1D"/>
<path d="M729.556 28.2792C729.556 28.9458 730.378 29.6125 731.318 29.6125C732.258 29.6125 733.08 28.9458 733.08 28.2792C733.08 27.4792 732.258 26.9458 731.318 26.9458C730.378 26.9458 729.556 27.4792 729.556 28.2792Z" fill="#427E1D"/>
<path d="M245.236 29.2124C245.941 29.4791 247.351 29.4791 248.173 29.2124C248.878 28.8124 248.291 28.5457 246.646 28.5457C245.001 28.5457 244.413 28.8124 245.236 29.2124Z" fill="#427E1D"/>
<g filter="url(#filter0_d_1_75)">
<path d="M1020.95 30.6791C1020.01 31.2125 1017.66 32.8125 1015.78 34.2791C1013.07 36.2791 1010.02 36.9458 1001.68 37.2125C985.815 37.7458 964.548 42.1458 964.548 44.9458C964.548 48.0124 962.081 48.9458 952.328 49.6124C942.459 50.2791 939.521 52.5458 945.044 54.9458C948.099 56.1458 949.274 58.9458 946.806 58.9458C946.219 58.9458 943.164 58.2791 940.226 57.3458C936.231 56.2791 934.352 56.2791 932.707 57.3458C931.532 58.2791 929.769 58.5458 928.712 58.1458C927.772 57.7458 926.949 57.7458 926.949 58.1458C926.949 58.6791 928.124 59.6124 929.652 60.2791C931.767 61.2124 931.414 61.4791 927.419 61.4791C924.129 61.6124 922.249 60.9458 921.779 59.6124C921.074 57.3458 920.017 57.0791 917.55 58.9458C916.257 59.8791 916.14 60.5458 917.197 61.7458C918.02 62.6791 918.255 64.9458 917.902 67.0791C917.315 70.5458 917.55 70.9458 920.369 70.9458C922.014 70.9458 923.424 71.4791 923.424 72.2791C923.424 72.9458 922.602 73.6124 921.662 73.6124C920.604 73.6124 920.017 74.6791 920.252 76.5458C920.604 80.0124 914.025 85.6124 909.56 85.6124H906.505L910.5 80.9458C914.025 76.8124 914.377 75.8791 913.085 73.6124C912.38 72.1458 911.675 68.9458 911.675 66.5458C911.675 64.1458 911.087 61.4791 910.382 60.6791C909.442 59.6124 909.442 58.9458 910.382 58.4124C911.087 57.8791 911.675 56.5458 911.675 55.4791C911.675 54.1458 910.265 53.6124 906.505 53.6124C902.158 53.6124 900.63 54.4124 897.458 58.0124C893.11 62.9458 892.875 65.8791 896.753 70.6791C900.748 75.6124 897.81 76.4124 888.763 72.9458C879.481 69.3458 870.551 68.5458 870.551 71.3458C870.551 73.7458 865.264 76.4124 863.854 74.8124C863.149 74.0124 859.741 74.0124 854.572 74.8124C850.107 75.6124 844.467 75.8791 841.999 75.6124C837.652 75.0791 828.605 78.0124 822.025 82.0124C816.62 85.2124 810.275 81.8791 814.74 78.1458C816.738 76.4124 816.738 76.2791 814.858 75.4791C812.038 74.2791 810.275 76.6791 810.158 81.8791C810.04 85.8791 809.805 86.2791 806.633 85.8791C801.816 85.3458 796.528 88.1458 795.236 92.0124C794.061 95.3458 794.178 95.3458 785.366 92.8124C783.016 92.1458 783.016 92.1458 785.249 94.2791C786.894 95.7458 787.246 96.6791 786.306 97.7458C784.074 100.279 776.672 95.6124 774.792 90.4124C773.852 87.8791 772.442 85.6124 771.619 85.2124C770.797 84.9458 770.444 84.1458 770.914 83.6124C771.384 83.0791 774.792 83.2124 778.434 84.1458C786.776 86.0124 792.416 86.0124 795.471 84.2791C799.466 81.7458 797.938 79.3458 790.419 76.2791C783.956 73.7458 778.551 72.2791 761.632 68.9458C758.812 68.4124 757.99 67.6124 758.577 66.0124C759.165 64.2791 758.577 64.0124 755.64 64.5458C753.525 64.8124 751.762 64.5458 751.527 63.7458C751.175 62.8124 750.47 62.9458 749.177 64.0124C748.12 65.0791 746.71 65.4791 746.005 64.9458C745.3 64.4124 743.89 64.8124 742.95 65.7458C741.423 67.0791 740.953 67.0791 740.13 65.6124C739.308 64.1458 738.485 64.0124 736.37 65.2124C733.55 66.8124 727.793 68.2791 722.388 68.6791C718.863 68.9458 710.639 73.4791 709.229 75.8791C708.759 76.8124 707.701 77.6124 706.879 77.6124C704.881 77.7458 698.654 84.1458 696.069 88.6791C694.894 90.6791 692.427 93.3458 690.547 94.4124C688.314 95.7458 687.257 97.2124 687.727 98.4124C688.197 99.7458 687.374 100.279 684.789 100.279C682.909 100.279 678.68 101.746 675.507 103.612C670.455 106.546 669.632 107.612 669.632 110.946C669.632 113.079 670.22 115.212 670.807 115.612C671.512 116.012 671.982 118.146 671.982 120.279C671.982 126.546 676.682 127.346 683.849 122.146C686.552 120.279 689.137 119.212 689.607 119.879C690.077 120.412 692.309 124.812 694.424 129.612C696.539 134.412 698.301 138.412 698.419 138.546C698.536 138.679 700.769 137.612 703.471 136.146C707.349 133.879 708.641 132.279 709.699 128.146C710.521 125.212 712.049 122.679 713.341 122.279C714.516 121.746 715.926 120.412 716.631 119.079C717.453 117.079 717.101 116.412 714.868 115.212C708.876 112.146 712.401 102.812 721.213 98.2791C723.916 96.9458 726.031 95.0791 726.031 94.1458C726.031 91.2124 730.965 86.9458 734.373 86.9458C743.538 86.9458 743.538 91.3458 734.373 97.8791C727.441 102.812 727.323 102.946 728.028 107.879C728.851 114.679 731.318 116.679 737.193 115.746C750.47 113.479 753.877 113.346 754.817 114.946C756.462 117.879 751.88 120.279 744.713 120.279C740.718 120.279 737.545 120.946 737.075 121.879C736.605 122.679 736.84 123.746 737.545 124.012C739.66 124.812 739.308 130.946 737.075 131.879C736.135 132.279 734.725 132.012 733.903 131.079C730.378 127.079 727.206 130.279 727.206 137.746C727.206 142.546 721.096 146.946 717.688 144.546C716.043 143.346 713.928 143.612 708.759 145.746C703.236 147.879 701.474 148.012 699.359 146.812C697.949 146.012 695.247 145.612 693.367 146.012C688.667 147.079 684.084 142.012 685.964 137.879C686.669 136.279 687.257 133.879 687.257 132.412C687.257 130.012 686.904 129.879 684.437 131.212C680.795 132.946 679.855 135.612 681.5 139.079C682.087 140.546 682.557 143.346 682.322 145.346C681.97 148.546 681.382 148.946 677.27 149.346C673.627 149.746 671.747 150.946 668.457 154.812C666.225 157.612 663.053 160.412 661.408 160.946C659.88 161.479 657.06 163.746 655.415 165.746C653.418 168.146 651.068 169.612 649.188 169.612C647.426 169.612 645.781 170.546 645.428 171.612C644.958 172.946 643.078 173.612 640.141 173.612C635.088 173.612 634.031 175.746 638.496 177.079C640.023 177.479 642.726 179.879 644.371 182.412C646.956 186.146 647.308 187.746 646.603 191.879C645.311 200.279 644.723 200.679 632.034 199.746C625.924 199.212 620.401 199.346 619.696 199.879C619.109 200.412 618.404 204.679 618.404 209.212C618.287 213.879 618.052 218.412 618.052 219.212C617.934 220.146 618.287 222.946 618.639 225.212C619.226 228.946 619.931 229.612 622.751 229.612C624.749 229.612 626.629 230.679 627.686 232.279C629.214 234.812 629.566 234.812 632.739 232.946C634.619 231.879 637.438 230.946 639.083 230.946C642.843 230.946 648.483 225.079 648.483 221.212C648.483 216.812 652.243 211.079 656.825 208.546C659.058 207.346 660.82 205.346 660.938 204.279C661.173 199.746 661.525 199.079 663.64 198.279C664.815 197.879 667.165 198.146 668.927 198.946C671.512 200.012 672.922 199.612 676.682 196.946C679.267 195.079 682.087 193.612 682.909 193.612C683.849 193.612 686.787 196.679 689.607 200.412C692.427 204.146 696.304 208.012 698.301 208.946C700.299 209.879 703.824 212.812 706.174 215.479C709.111 218.679 710.286 219.346 709.934 217.746C709.581 216.279 709.934 214.812 710.639 214.412C712.166 213.212 712.401 210.946 710.874 210.946C708.759 210.946 700.181 203.746 699.476 201.346C699.124 200.012 697.832 198.279 696.539 197.612C693.719 195.879 693.484 188.946 696.187 187.746C698.184 186.812 700.769 188.546 705.704 194.146C707.466 196.279 711.696 199.879 714.868 202.146C719.568 205.479 720.861 207.079 721.096 210.412C721.566 215.612 726.736 222.412 731.083 223.479C734.02 224.279 734.255 224.146 733.198 221.746C729.79 214.812 734.843 209.879 743.655 211.612C749.647 212.812 752.467 210.679 750.587 206.679C748.942 203.346 752.115 195.612 758.107 187.612L762.102 182.412L766.802 184.146C769.387 185.079 771.502 186.546 771.502 187.479C771.384 192.946 771.854 193.746 774.322 192.146C775.967 191.212 776.554 189.879 776.202 188.146C775.497 184.946 778.904 182.146 785.131 180.946C790.066 179.879 790.536 180.812 787.599 187.346C786.541 189.612 786.071 191.612 786.659 191.879C787.246 192.146 790.771 194.679 794.531 197.746C802.286 204.012 803.461 208.279 798.056 210.812C793.943 212.679 783.956 211.746 779.374 208.946C775.027 206.412 769.387 206.412 766.449 208.946C765.274 210.012 762.924 210.946 761.162 210.946C759.517 210.946 757.637 211.612 756.932 212.412C756.227 213.212 753.642 214.012 751.175 214.012C746.827 214.279 746.592 214.546 746.945 218.279C747.532 225.612 749.647 229.612 754.112 231.746C757.402 233.346 758.812 233.346 760.81 232.146C762.807 230.946 763.982 231.079 766.332 232.946C768.917 234.812 769.739 234.946 772.677 233.212C774.439 232.279 776.906 231.612 778.199 232.012C780.079 232.412 780.314 233.479 779.844 240.012C779.609 244.279 778.199 250.546 776.789 254.146L774.204 260.679L767.507 259.879C763.629 259.479 759.87 259.746 758.577 260.546C755.052 262.679 743.773 259.746 733.903 254.146C732.023 253.079 729.555 252.279 728.381 252.279C725.796 252.279 722.153 256.012 723.211 257.746C723.563 258.412 723.446 260.279 723.093 261.746C722.506 263.879 721.566 264.412 719.216 263.879C713.224 262.546 706.879 259.212 704.999 256.412C703.824 254.679 701.239 253.212 698.419 252.679C694.189 252.012 686.082 247.612 686.082 246.146C686.082 245.746 686.904 244.012 687.962 242.146C689.489 239.612 689.607 238.412 688.549 237.212C687.844 236.412 687.257 234.679 687.257 233.479C687.257 231.479 686.082 231.212 677.622 231.746C660.468 232.812 656.003 233.746 650.246 237.079C644.136 240.546 633.561 241.479 631.211 238.812C630.154 237.612 629.331 238.412 627.804 241.879C626.746 244.412 624.396 247.612 622.516 248.812C618.404 251.479 615.584 257.346 615.584 262.679C615.584 267.612 611.589 273.346 606.537 275.746C604.422 276.812 602.66 278.412 602.66 279.479C602.66 280.412 601.602 282.279 600.31 283.612C599.017 284.946 597.96 286.679 597.96 287.346C597.96 288.146 596.08 292.946 593.73 298.012C590.205 305.746 589.735 307.746 590.675 310.812C593.025 317.746 593.26 325.612 591.497 333.612C589.617 341.879 590.087 351.879 592.555 354.279C595.962 357.746 602.425 368.012 603.13 371.212C603.482 373.212 604.657 375.612 605.714 376.546C606.772 377.479 610.062 380.679 612.999 383.746C620.989 391.612 622.516 392.412 626.394 390.146C628.509 388.946 632.504 388.279 637.673 388.546C643.901 388.679 646.721 388.146 651.303 385.612C654.475 383.879 659.175 382.412 661.878 382.412C666.108 382.279 666.93 382.812 669.515 387.346C672.335 392.279 672.805 392.412 677.152 391.746C685.494 390.146 688.079 397.346 684.789 413.612C683.497 420.012 684.084 424.412 686.434 427.212C692.662 434.412 697.714 447.612 699.594 461.612C700.769 470.412 700.534 474.412 698.419 478.012C696.539 481.479 693.132 494.679 693.132 499.079C693.132 500.546 695.247 506.946 697.949 513.346C701.474 521.879 703.119 528.279 704.411 537.612C705.469 545.746 706.879 551.612 708.406 553.879C712.166 559.612 716.631 572.279 716.631 576.946C716.631 579.479 717.571 582.146 718.981 583.612C720.978 585.612 721.918 585.746 726.501 584.412C729.438 583.612 733.55 582.946 735.665 582.946C745.652 582.946 755.287 575.479 761.397 562.946C762.924 560.012 764.452 557.612 764.922 557.612C766.214 557.612 768.329 549.746 768.329 544.812C768.329 540.946 768.917 540.012 772.794 538.012C777.964 535.212 778.786 531.479 776.437 520.679L775.027 513.746L779.609 507.879C782.076 504.679 786.071 500.679 788.421 499.079C795.706 494.279 796.998 490.946 796.058 478.146C795.588 472.012 794.413 465.346 793.591 463.346C792.651 461.212 791.829 457.346 791.829 454.546C791.829 451.746 791.241 448.279 790.654 446.946C789.126 443.612 793.356 430.546 797.821 424.546C799.701 422.146 801.228 419.612 801.228 418.946C801.228 418.146 805.928 412.279 811.685 405.746C820.615 395.612 822.848 392.146 827.547 380.946C832.952 368.012 836.007 354.812 833.07 356.812C831.307 358.146 813.565 362.946 810.745 362.946C807.926 362.946 804.518 357.079 805.576 354.279C806.046 352.679 804.166 349.879 799.231 344.546C794.296 339.212 791.711 335.346 790.889 331.746C790.184 328.946 788.539 325.346 787.246 323.746C785.954 322.146 784.426 317.346 783.721 313.079C782.899 308.279 781.489 304.146 780.079 302.679C778.786 301.346 777.729 299.079 777.729 297.746C777.729 296.412 776.202 291.479 774.322 286.812C772.442 282.146 770.444 276.812 769.974 274.946C769.269 271.879 769.387 271.746 771.149 273.479C772.912 275.212 773.382 275.212 774.204 273.612C775.497 271.212 778.669 275.346 783.251 285.612C785.014 289.612 787.481 294.012 788.539 295.212C789.714 296.546 790.889 299.079 791.241 300.946C791.594 302.812 792.064 305.746 792.416 307.612C792.768 309.346 794.061 311.879 795.236 313.212C799.466 317.612 804.988 331.346 806.046 340.279C806.633 344.946 807.573 349.346 808.161 350.012C808.748 350.679 810.98 350.279 813.095 349.212C815.328 348.146 818.97 346.546 821.203 345.612C823.435 344.546 826.137 343.079 827.077 342.279C828.017 341.346 830.837 339.879 833.187 339.079C835.537 338.146 837.887 336.412 838.24 335.079C838.945 332.546 843.527 329.612 846.582 329.612C847.522 329.612 848.579 328.679 848.932 327.612C849.402 326.546 850.224 325.612 850.929 325.612C852.339 325.612 858.801 317.746 858.801 316.012C858.801 315.346 860.211 312.679 861.856 310.146C864.559 306.146 864.794 305.079 863.619 302.146C862.914 300.279 860.799 298.146 858.801 297.479C856.921 296.679 854.807 294.412 853.867 292.279L852.457 288.546L848.579 292.412C842.352 298.546 833.775 297.212 836.007 290.412C836.36 289.346 836.125 288.146 835.42 287.612C834.597 287.079 834.127 288.012 834.127 289.879L834.01 292.946L832.365 289.612C831.425 287.746 830.72 285.346 830.602 284.146C830.602 282.946 829.78 281.212 828.722 280.146C827.782 279.212 825.902 276.146 824.61 273.212C821.79 267.079 822.965 264.279 828.37 264.279C831.072 264.279 832.13 265.212 834.01 269.346C835.302 272.146 838.475 276.146 841.059 278.146C845.172 281.346 846.582 281.746 850.929 281.079C855.512 280.279 856.216 280.546 857.274 283.346C858.919 287.346 865.029 288.679 880.186 288.146C890.173 287.746 890.76 287.879 892.64 291.079C895.343 295.612 899.103 299.612 901.57 300.679C903.215 301.479 903.45 302.012 902.393 303.479C901.335 304.812 901.57 306.012 903.332 308.412C905.447 311.479 905.565 311.479 908.737 309.079C912.85 306.012 914.025 307.746 914.025 316.946C914.025 326.012 916.257 334.679 926.949 367.879C928.829 373.612 930.944 373.479 934.352 367.212C937.524 361.479 938.934 354.679 939.169 344.279C939.286 337.746 939.639 336.812 942.811 334.412C944.809 332.946 949.039 328.279 952.211 324.012C955.501 319.746 959.026 315.879 960.083 315.479C961.258 315.079 962.551 313.346 962.903 311.479C963.843 307.479 967.485 304.946 971.715 305.479C973.478 305.612 975.593 304.812 976.65 303.746C979.47 300.412 980.763 301.212 983.112 307.479C984.405 310.679 986.05 313.746 986.755 314.146C989.457 316.012 992.747 326.679 992.042 330.812C991.102 335.746 993.217 336.279 997.8 332.279C1001.44 328.946 1001.91 329.612 1004.85 342.279C1006.26 348.412 1006.85 355.079 1006.61 361.612C1006.38 370.679 1006.61 372.146 1009.55 377.079C1011.31 380.146 1013.19 384.946 1013.54 387.746C1014.48 394.812 1018.01 402.412 1021.53 405.079C1025.29 407.879 1026.47 406.679 1024.71 402.279C1023.88 400.412 1023.3 396.812 1023.3 394.412C1023.3 390.812 1022.12 388.546 1017.42 383.079C1014.25 379.346 1011.55 375.346 1011.55 374.279C1011.55 373.346 1010.72 371.479 1009.55 370.279C1007.79 368.279 1007.79 367.079 1009.2 359.212C1010.02 354.279 1010.96 349.479 1011.31 348.546C1012.02 346.279 1015.07 346.546 1015.07 348.946C1015.07 350.012 1015.66 350.946 1016.48 350.946C1018.83 350.946 1029.17 364.146 1029.17 366.946C1029.17 370.812 1031.05 370.279 1034.11 365.612C1035.52 363.346 1037.28 361.612 1037.98 361.612C1038.69 361.612 1040.57 360.146 1042.1 358.279C1045.97 353.612 1045.03 342.412 1040.22 335.612C1030.11 321.079 1029.64 318.812 1035.63 311.879C1039.75 307.079 1044.68 305.346 1046.09 308.146C1046.8 309.346 1057.84 305.212 1060.31 302.946C1061.01 302.279 1063.48 301.479 1065.95 300.946C1070.65 299.879 1080.16 290.279 1081.57 285.079C1082.04 283.479 1083.81 280.146 1085.57 277.612C1089.68 271.479 1090.62 267.346 1088.15 265.746C1086.63 264.679 1086.51 264.146 1087.8 262.412C1088.98 260.812 1089.09 259.879 1088.04 258.412C1087.33 257.346 1086.74 256.012 1086.86 255.479C1086.98 254.812 1086.51 252.546 1085.8 250.546C1084.98 248.412 1084.39 246.146 1084.39 245.479C1084.39 244.812 1083.81 244.279 1083.22 244.279C1082.51 244.279 1081.69 243.346 1081.22 242.146C1080.4 239.746 1087.33 230.946 1090.15 230.812C1091.21 230.812 1090.5 230.146 1088.74 229.346C1086.27 228.412 1084.98 228.412 1083.57 229.746C1082.04 231.346 1081.46 231.079 1079.93 228.546C1078.99 226.946 1077.46 225.612 1076.64 225.612C1074.29 225.612 1074.64 220.412 1077.11 219.346C1078.17 218.946 1081.1 216.679 1083.57 214.546C1088.74 210.012 1092.15 210.412 1090.97 215.612C1090.15 219.346 1090.27 219.479 1094.26 217.479C1095.79 216.679 1098.61 216.279 1100.26 216.812C1102.96 217.612 1103.43 218.279 1102.84 221.346C1102.37 224.279 1102.72 225.346 1104.72 226.279C1106.95 227.346 1107.31 228.812 1107.42 234.946C1107.66 242.812 1107.78 242.946 1114.12 240.012C1116.35 239.079 1117.29 237.612 1117.29 235.346C1117.29 231.879 1113.42 222.279 1111.42 220.946C1109.3 219.479 1110.24 216.946 1113.77 214.546C1115.65 213.212 1117.53 210.812 1118 209.079C1118.94 204.546 1125.05 199.879 1128.57 200.812C1132.57 202.012 1137.03 198.946 1142.91 190.946C1153.95 176.279 1156.54 171.746 1157.48 164.946C1158.06 161.212 1158.77 156.412 1159.12 154.279C1159.71 150.812 1159.24 149.879 1156.77 148.279C1154.42 146.946 1153.13 146.812 1150.78 148.012C1147.49 149.746 1144.79 148.946 1143.85 146.146C1143.49 145.079 1142.44 144.279 1141.38 144.279C1137.39 144.279 1140.32 140.412 1152.19 130.279L1164.64 119.746L1178.86 118.812C1186.73 118.412 1194.61 118.546 1196.6 119.212C1202.83 121.079 1204.83 120.412 1210.82 114.279C1216.46 108.412 1221.16 106.279 1226.68 107.212C1228.21 107.479 1229.38 108.412 1229.15 109.346C1228.68 112.012 1232.56 111.212 1236.67 107.612C1241.13 103.746 1244.78 103.079 1243.72 106.412C1243.37 107.612 1243.01 109.079 1243.01 109.612C1243.01 110.679 1232.91 118.812 1222.45 126.279C1213.17 132.946 1212 136.279 1214.46 149.212C1215.52 154.946 1216.58 159.879 1216.81 160.146C1217.4 161.079 1221.86 156.012 1221.86 154.279C1221.86 153.479 1223.04 151.479 1224.57 149.879C1225.98 148.412 1227.86 146.146 1228.68 145.079C1229.5 143.879 1231.26 142.946 1232.56 142.946C1234.32 142.946 1234.79 142.279 1234.32 140.946C1233.97 139.746 1234.67 137.746 1235.85 136.412C1238.31 133.612 1238.43 130.946 1236.08 127.746C1234.79 126.012 1235.14 124.946 1237.84 121.079C1240.9 116.812 1241.84 116.412 1250.77 114.946C1256.06 114.012 1261.58 113.746 1262.87 114.279C1264.52 114.812 1267.69 113.746 1272.04 111.212C1280.73 106.146 1291.07 102.679 1294.48 103.746C1295.89 104.279 1297.06 104.279 1297.06 103.879C1297.06 102.012 1294.24 96.2791 1293.3 96.2791C1290.72 96.2791 1292.83 93.6124 1296.24 92.5458L1300 91.4791V82.1458V72.9458L1295.3 71.2124C1292.72 70.1458 1285.43 69.0791 1279.2 68.6791C1268.04 67.8791 1267.69 68.0124 1267.69 70.8124C1267.69 74.1458 1264.05 74.5458 1259.35 71.7458C1257.35 70.5458 1251.83 70.0124 1242.54 70.0124C1228.68 70.0124 1227.62 69.6124 1226.21 64.9458C1225.98 64.1458 1219.28 63.3458 1211.17 62.9458C1199.54 62.2791 1195.55 61.6124 1191.32 59.2124C1187.67 57.3458 1182.15 56.0124 1173.69 55.2124C1160.3 53.8791 1158.77 54.0124 1156.07 57.8791C1154.07 60.6791 1151.01 61.0791 1137.62 60.2791C1130.57 59.8791 1128.69 60.2791 1126.58 62.4124C1124.23 64.8124 1124.11 64.8124 1119.88 62.1458C1116.35 60.0124 1115.65 58.9458 1115.88 55.8791C1116.24 52.0124 1115.77 51.7458 1105.19 50.4124C1101.08 49.8791 1098.73 50.2791 1096.61 51.8791C1094.03 53.7458 1092.62 53.8791 1084.63 52.4124C1079.69 51.4791 1071.59 50.5458 1066.77 50.4124C1061.95 50.1458 1056.43 49.6124 1054.43 49.0791C1052.44 48.6791 1048.09 49.0791 1044.68 50.0124C1037.51 52.1458 1035.4 50.9458 1041.86 48.4124C1044.21 47.4791 1049.03 45.4791 1052.44 43.8791C1062.89 39.2124 1059.49 34.9458 1045.27 34.9458C1036.57 34.9458 1029.17 33.0791 1029.17 30.8125C1029.17 29.4791 1023.53 29.3458 1020.95 30.6791ZM930.474 73.6124C930.474 74.2791 930.239 74.9458 930.004 74.9458C929.652 74.9458 929.064 74.2791 928.712 73.6124C928.359 72.8124 928.594 72.2791 929.182 72.2791C929.887 72.2791 930.474 72.8124 930.474 73.6124Z" fill="#427E1D"/>
</g>
<path d="M216.684 33.6124L211.984 36.2791L216.684 35.6124C219.269 35.2124 222.912 34.6791 224.792 34.5458C226.672 34.4124 228.434 33.6124 228.669 32.9458C229.374 30.5458 221.502 30.9458 216.684 33.6124Z" fill="#427E1D"/>
<path d="M305.747 34.5458C306.804 34.8125 308.684 34.8125 309.859 34.5458C310.916 34.1458 309.976 33.8791 307.744 33.8791C305.512 33.8791 304.572 34.1458 305.747 34.5458Z" fill="#427E1D"/>
<path d="M887.823 34.9458C881.478 36.2792 881.126 37.6125 887.118 37.6125C890.056 37.6125 893.463 36.6792 894.755 35.6125C896.988 33.7458 896.988 33.7458 894.638 33.7458C893.345 33.8792 890.291 34.4125 887.823 34.9458Z" fill="#427E1D"/>
<path d="M255.928 37.4792C256.633 38.8125 256.751 40.4125 256.281 40.8125C255.928 41.3458 258.043 41.6125 261.215 41.3458C264.623 41.0792 267.208 40.2792 267.56 39.2125C267.913 38.0125 267.208 37.7458 264.975 38.4125C262.978 38.9458 260.863 38.4125 258.983 37.0792C255.223 34.2792 254.518 34.4125 255.928 37.4792Z" fill="#427E1D"/>
<path d="M290.12 38.5458C290.12 41.2125 290.707 41.7458 292.822 41.3458C294.467 41.0792 295.407 40.0125 295.407 38.4125C295.407 36.6792 294.467 35.7458 292.822 35.6125C290.707 35.4792 290.12 36.1458 290.12 38.5458Z" fill="#427E1D"/>
<path d="M315.969 36.0125C315.969 36.6791 316.321 37.6125 316.909 38.1458C317.379 38.6791 317.731 39.8791 317.731 40.6791C317.731 43.0791 323.018 43.8791 340.878 44.0125C353.567 44.0125 358.502 43.6125 359.442 42.2791C361.322 39.7458 354.977 38.8125 342.17 39.7458C331.361 40.6791 321.844 38.9458 321.844 36.0125C321.844 35.4791 320.551 34.9458 318.906 34.9458C317.261 34.9458 315.969 35.4791 315.969 36.0125Z" fill="#427E1D"/>
<path d="M234.426 38.4125C233.369 41.4792 233.486 41.7458 236.424 41.4792C237.834 41.3458 240.301 41.3458 241.946 41.4792C244.296 41.6125 244.531 41.8792 243.121 42.9458C240.184 45.0792 246.881 44.5458 251.463 42.2792C255.341 40.4125 255.341 40.4125 252.286 40.2792C250.523 40.2792 247.938 39.7458 246.411 39.0792C240.066 36.4125 235.249 36.1458 234.426 38.4125Z" fill="#427E1D"/>
<path d="M865.264 38.5458C859.742 39.3458 851.987 43.0791 851.282 45.0791C850.929 46.1458 849.989 46.9458 849.167 46.9458C848.344 46.9458 845.642 49.4791 843.292 52.5458C839.297 57.6125 839.062 58.2791 841.06 58.6791C842.352 58.9458 843.997 60.0125 844.702 61.0791C845.524 62.1458 847.757 62.9458 849.637 62.9458C852.927 62.9458 852.927 62.8125 851.282 60.1458C847.639 54.1458 855.042 46.9458 870.669 40.9458C879.363 37.7458 879.363 37.7458 874.076 37.8791C871.139 38.0125 867.261 38.2791 865.264 38.5458Z" fill="#427E1D"/>
<path d="M1147.14 39.0791C1145.61 42.0124 1149.72 42.9458 1160.77 42.1458C1171.22 41.6124 1173.57 41.0791 1172.4 39.7458C1171.11 38.2791 1147.96 37.7458 1147.14 39.0791Z" fill="#427E1D"/>
<path d="M305.394 41.6125C305.394 42.2791 306.804 42.9458 308.449 42.9458C310.094 42.9458 311.151 42.4125 310.681 41.6125C310.329 40.8125 308.919 40.2791 307.626 40.2791C306.451 40.2791 305.394 40.8125 305.394 41.6125Z" fill="#427E1D"/>
<path d="M201.527 50.9458C199.765 54.0125 198.472 56.6791 198.707 56.8125C198.942 56.9458 200.705 57.8791 202.702 58.8125C206.462 60.4125 214.922 59.6125 214.922 57.6125C214.922 56.4125 225.849 50.9458 228.316 50.9458C229.374 50.9458 230.196 50.4125 230.196 49.7458C230.196 48.0125 226.672 46.8125 222.442 47.0791C220.562 47.0791 215.862 46.8125 211.984 46.2791L204.817 45.3458L201.527 50.9458Z" fill="#427E1D"/>
<path d="M307.391 48.8125C305.981 50.1458 305.629 51.6125 306.099 54.5458C306.569 57.2125 306.216 59.2125 304.924 60.6792C303.867 61.7458 303.044 63.7458 303.044 64.9458C303.044 67.0792 303.632 67.4792 309.271 68.8125C313.736 70.0125 313.619 74.5458 308.801 76.8125C306.804 77.7458 305.277 79.0792 305.394 79.7458C305.747 82.2792 302.809 81.7458 302.222 79.0792C301.869 77.4792 301.164 76.2792 300.577 76.2792C299.989 76.2792 299.519 75.6125 299.519 74.9458C299.519 74.1458 300.342 73.6125 301.282 73.6125C304.102 73.6125 303.279 71.0792 300.224 70.1458C296.582 69.2125 294.232 70.5458 295.877 72.6792C296.582 73.7458 296.464 75.0792 295.407 76.8125C293.879 79.0792 292.587 79.2125 283.657 78.6792C278.135 78.2792 272.495 77.0792 270.968 76.0125C267.913 73.7458 259.57 72.8125 259.57 74.6792C259.57 75.4792 260.628 75.7458 261.92 75.3458C263.213 74.9458 264.27 75.3458 264.27 76.1458C264.27 76.9458 263.8 77.6125 263.095 77.6125C262.508 77.6125 261.92 79.2125 261.92 81.2125C261.803 84.4125 261.685 84.6792 260.393 82.8125C257.691 78.8125 254.518 77.8792 245.941 78.5458C240.889 79.0792 236.776 78.6792 235.366 77.8792C234.191 77.0792 233.839 76.2792 234.661 76.2792C237.951 76.2792 235.719 73.6125 232.311 73.6125C230.196 73.6125 223.734 72.4125 217.977 70.9458C211.397 69.3458 206.932 68.8125 205.64 69.4792C202.937 71.2125 194.36 70.4125 192.128 68.4125C190.953 67.3458 189.19 66.9458 187.663 67.4792C180.378 70.0125 177.441 70.5458 176.383 69.3458C175.796 68.6792 174.033 68.8125 172.036 69.6125C170.156 70.4125 167.453 70.8125 166.043 70.4125C164.516 69.8792 162.871 70.4125 162.049 71.6125C160.404 73.8792 156.526 74.1458 152.179 72.2792C147.832 70.4125 135.729 68.1458 127.387 67.6125C115.755 66.8125 93.7832 64.2792 89.0834 63.0792C86.0285 62.2792 82.2686 62.6792 76.1588 64.4125C71.3414 65.7458 66.7591 66.9458 65.8191 66.9458C64.8791 66.9458 62.8817 68.2792 61.3543 69.8792C59.9443 71.3458 56.6544 73.0792 54.3045 73.6125L49.8396 74.4125L54.0695 76.5458C56.4194 77.7458 58.7693 79.3458 59.1218 80.1458C59.5918 80.9458 61.3543 81.6125 63.1167 81.6125C64.8791 81.7458 67.5816 82.5458 69.109 83.4792C71.9289 85.2125 71.9289 85.2125 67.5816 86.1458C65.2316 86.6792 61.0018 86.6792 58.2994 86.2792C55.5969 85.7458 51.8371 86.0125 50.0746 86.8125L46.7847 88.2792L49.1346 91.0792C51.2496 93.7458 52.307 93.8792 60.4143 93.2125L69.344 92.4125L68.9915 96.0125C68.639 99.2125 67.934 99.7458 62.5292 100.946C59.1218 101.746 55.2444 103.612 53.8345 105.079L51.3671 108.012L54.0695 112.146C56.6544 116.146 58.0644 116.812 62.4117 116.412C63.4692 116.279 64.9966 117.346 65.9366 118.812C67.1116 120.679 69.344 121.612 74.3963 122.146C78.1562 122.412 81.5636 123.079 81.9161 123.479C83.2086 125.079 79.6837 131.079 76.0413 133.612C68.404 138.946 74.9838 136.146 84.3835 130.146C90.1408 126.412 93.9007 123.079 93.9007 121.746C93.9007 120.546 96.0157 117.746 98.4831 115.346C103.3 110.812 109.175 108.279 109.175 110.812C109.175 111.612 108.47 112.279 107.53 112.279C105.063 112.279 103.065 115.479 104.593 117.212C106.12 118.946 113.875 116.279 113.875 114.012C113.875 111.746 119.162 111.879 126.33 114.146C129.502 115.212 135.142 116.412 138.784 116.679C142.427 116.946 146.187 117.746 147.009 118.412C153.471 123.612 159.229 125.212 160.991 122.412C162.166 120.679 169.333 129.612 168.628 131.746C168.276 132.812 168.746 133.612 169.568 133.612C171.683 133.612 179.321 142.279 180.378 145.879C180.73 147.346 182.845 150.412 185.078 152.546C187.31 154.812 189.073 157.346 189.073 158.412C189.073 159.479 189.895 160.679 190.835 161.079C193.538 162.279 192.95 164.546 190.248 163.612C186.37 162.279 187.545 163.612 194.36 168.812C201.762 174.412 207.167 175.612 201.41 170.412C199.53 168.679 198.237 166.812 198.59 166.412C199.647 165.212 207.637 172.146 208.46 175.079C209.282 178.012 207.872 180.812 207.05 177.879C206.697 177.079 205.287 176.279 203.76 176.279C201.175 176.279 201.057 176.546 202.232 180.412C202.937 182.946 203.172 187.746 202.585 192.679C200.94 208.946 203.055 222.946 207.402 224.812C208.342 225.212 209.047 226.679 209.047 228.012C209.047 229.479 210.34 232.812 211.984 235.479C213.629 238.146 214.922 240.812 214.922 241.346C215.039 241.879 217.507 243.612 220.562 245.212C225.497 247.879 226.437 249.079 229.374 256.679C231.254 261.479 233.956 266.679 235.601 268.412C237.364 270.279 238.421 272.946 238.421 275.479C238.421 278.679 239.244 280.146 241.946 281.879C244.296 283.479 245.471 285.212 245.471 287.346C245.471 289.212 246.411 291.479 247.468 292.412C249.231 294.146 249.348 293.879 248.643 289.746C247.821 285.079 242.651 274.812 237.599 267.879C233.839 262.546 233.956 257.612 237.834 257.612C240.301 257.612 241.359 258.812 243.591 264.546C245.236 268.412 248.643 274.279 251.228 277.479C253.931 280.812 256.046 284.146 256.046 285.079C256.046 286.012 256.751 287.346 257.691 287.879C258.631 288.412 261.568 292.146 264.388 296.012C268.265 301.612 269.44 304.546 269.91 309.612C270.615 317.879 272.848 320.279 289.062 329.479C299.519 335.479 301.987 336.279 303.984 335.079C308.096 332.546 310.564 333.479 315.264 338.812C319.376 343.612 328.071 348.279 332.888 348.279C333.828 348.279 334.886 349.346 335.356 350.812C335.708 352.146 337.001 354.279 338.293 355.612C339.585 356.946 340.643 358.946 340.643 360.012C340.643 362.146 349.925 372.146 351.923 372.279C352.628 372.279 354.625 373.479 356.27 374.946L359.325 377.612L359.677 374.812C360.147 370.679 363.555 368.546 366.257 370.546C367.315 371.346 368.137 372.812 367.902 373.612C367.785 374.546 368.372 376.546 369.312 378.279C372.837 384.412 371.544 402.946 367.667 402.946C366.962 402.946 366.492 403.879 366.492 404.946C366.492 406.012 365.552 408.012 364.495 409.346C360.265 414.146 357.445 426.946 360.617 426.946C362.497 426.946 362.027 429.612 359.442 433.212C356.857 436.946 357.21 441.746 360.5 446.279C361.675 447.746 363.437 451.079 364.495 453.612C369.547 465.612 374.364 478.812 375.187 482.279C376.362 487.612 377.537 489.079 385.056 494.412C388.464 496.946 392.694 500.679 394.221 502.679C397.159 506.279 397.159 506.412 396.454 525.612C396.101 536.279 395.279 547.346 394.691 550.279C394.104 553.212 393.281 561.346 392.811 568.279C392.224 576.812 390.931 584.412 388.699 591.612C386.936 597.479 385.409 604.412 385.409 606.946C385.526 609.479 385.174 613.612 384.704 615.879C383.999 619.346 384.234 620.279 385.644 620.279C388.699 620.279 388.816 622.279 386.584 632.412C384.939 640.012 383.882 642.279 382.354 642.279C381.179 642.279 380.004 643.079 379.769 643.879C379.417 644.812 379.769 645.612 380.474 645.612C382.472 645.612 382.002 654.946 380.004 655.746C379.064 656.279 378.242 657.746 378.242 659.212C378.242 661.212 378.829 661.612 380.474 660.946C382.237 660.279 382.707 660.812 382.589 662.679C382.472 665.612 385.174 676.279 386.701 678.279C387.289 678.946 387.641 678.412 387.641 677.079C387.641 675.079 388.229 674.812 391.401 675.479C396.101 676.546 400.566 673.479 399.744 669.746C399.391 668.012 400.214 665.879 402.211 663.612C403.856 661.746 405.266 659.746 405.266 659.079C405.266 658.546 406.911 656.412 408.791 654.412C412.316 650.946 412.551 648.279 409.378 648.279C408.438 648.279 407.028 646.946 406.323 645.346C405.031 642.679 405.383 642.012 409.496 638.146C413.726 634.146 413.961 633.346 414.431 625.079L414.901 616.279L419.483 617.079L423.948 617.879L424.77 612.412C425.475 607.212 425.71 606.946 429.588 606.946C437.342 606.946 447.212 599.346 444.04 595.746C443.335 594.946 442.865 593.479 442.865 592.412C442.865 591.346 442.042 589.346 440.867 588.012C438.282 584.679 439.575 583.612 444.157 585.479C450.619 588.012 452.969 587.346 456.729 581.879C458.727 579.079 460.724 575.212 461.077 573.346C461.547 571.346 464.366 566.812 467.539 562.946C472.474 556.946 473.179 555.346 473.649 548.812C474.001 543.612 474.941 540.679 476.939 538.279C480.463 534.012 488.571 528.812 493.623 527.612C498.793 526.279 499.968 525.079 502.905 517.746C506.313 509.479 507.605 503.079 508.545 490.279C509.25 480.012 509.485 479.212 515.36 470.146C522.762 458.812 524.29 454.412 523.35 448.279C522.41 442.812 520.882 440.279 518.297 440.279C517.357 440.279 514.302 438.012 511.6 435.212C507.488 430.812 505.725 429.879 499.615 429.079C495.738 428.546 491.743 428.546 490.686 429.079C489.158 429.612 488.688 429.212 488.688 427.079C488.688 424.146 485.163 420.946 480.463 419.612C478.231 419.079 476.821 419.612 475.294 421.479C474.001 423.079 472.474 424.279 471.886 424.279C471.181 424.279 471.534 423.212 472.591 421.879C475.999 417.612 475.059 415.879 469.889 416.679C464.836 417.479 464.249 416.546 466.834 411.879C468.361 409.346 468.361 408.146 466.481 401.879C463.192 390.946 457.552 385.612 449.327 385.612C444.51 385.612 438.752 381.612 437.577 377.746C437.225 376.412 435.345 374.546 433.582 373.612C431.703 372.812 429.94 371.079 429.588 369.879C429.353 368.679 427.12 366.412 424.77 365.079C421.245 362.946 419.953 362.679 418.19 364.012C416.545 365.079 415.018 365.212 412.903 364.279C411.141 363.479 408.556 362.946 407.028 362.946C405.501 362.946 403.738 362.012 403.151 360.812C401.976 358.279 396.689 357.879 394.339 360.146C393.399 360.946 392.929 363.212 393.281 365.746C393.751 368.946 393.399 369.746 392.224 369.346C391.284 368.946 390.461 366.946 390.461 364.812C390.109 355.746 390.579 356.146 384.117 359.212C380.592 360.946 378.242 362.812 378.242 364.146C378.242 365.346 376.832 368.012 375.304 370.012L372.367 373.746L368.842 370.812C365.67 368.012 364.965 368.012 360.735 369.612C354.86 371.746 353.215 371.079 349.455 364.546C346.635 359.746 346.518 358.812 347.575 350.812C349.103 338.146 347.81 336.279 337.001 336.279C329.481 336.279 328.776 336.012 329.481 333.879C329.951 332.679 330.773 328.946 331.243 325.612C331.713 322.279 332.888 317.346 333.946 314.546C336.178 308.546 335.121 307.479 328.776 309.212C325.721 310.146 324.663 311.346 323.841 315.079C322.313 321.479 321.374 322.546 314.911 323.479C306.569 324.679 303.514 322.679 299.402 312.812C295.994 304.812 295.877 304.146 297.052 294.679C297.757 289.212 297.992 283.612 297.639 282.279C296.582 277.079 300.929 271.479 309.624 267.079C311.034 266.412 314.206 266.412 317.261 267.079C324.311 268.546 324.546 268.546 323.841 266.412C323.371 265.212 324.193 264.279 325.721 263.746C329.951 262.546 340.408 262.812 341.23 264.279C341.583 264.946 343.463 265.612 345.225 265.612C348.985 265.612 352.393 270.146 352.393 274.946C352.393 278.279 355.095 284.546 357.445 286.812C360.617 289.746 360.97 283.612 358.385 274.279C354.742 261.746 355.095 258.412 360.382 252.546C362.85 249.879 366.14 246.546 367.785 245.346C372.249 242.146 375.069 234.679 373.894 229.212C372.719 224.146 373.189 218.946 374.834 218.946C375.539 218.946 375.657 220.146 375.304 221.612C374.717 223.479 375.069 224.279 376.362 224.279C377.419 224.279 378.242 223.079 378.242 221.612C378.242 220.146 378.829 218.946 379.534 218.946C380.122 218.946 381.297 217.212 381.884 215.079C382.824 212.146 384.352 210.679 387.876 209.346C391.754 208.012 392.929 206.679 393.986 202.946C395.044 199.079 396.571 197.612 402.328 194.279C411.963 188.812 416.898 186.946 418.895 187.879C421.598 189.079 420.775 190.546 417.015 191.479C415.018 191.879 413.138 193.212 412.786 194.279C411.611 197.479 413.256 198.279 415.723 195.746C416.898 194.546 419.835 192.946 422.185 192.146C427.12 190.679 427.825 188.279 423.478 188.279C420.658 188.279 419.13 186.812 413.021 178.812C410.553 175.612 410.671 175.212 413.491 174.679C417.603 174.012 415.488 171.612 410.906 171.879C406.206 172.146 401.153 175.079 397.981 179.479C396.924 180.946 395.631 181.746 395.044 181.212C394.221 180.146 397.746 176.012 407.146 167.212C409.966 164.546 411.611 164.279 422.068 164.279C431.938 164.279 434.17 163.879 436.637 161.612C438.282 160.146 440.867 158.946 442.277 158.946C443.687 158.946 445.685 157.879 446.86 156.412C448.857 153.879 448.269 149.612 445.92 149.612C445.097 149.612 442.63 147.746 440.515 145.612C438.4 143.346 435.697 141.612 434.64 141.612C432.407 141.612 426.415 134.146 426.415 131.346C426.415 129.479 418.425 116.279 417.25 116.279C416.898 116.279 414.901 118.412 412.786 120.946C409.143 125.479 405.031 126.946 403.503 124.279C403.151 123.479 401.741 122.946 400.566 122.946C398.921 122.946 398.099 121.612 397.511 118.146C397.041 115.612 395.866 113.079 394.809 112.546C393.751 112.146 391.284 110.412 389.169 108.946C386.349 106.679 383.529 106.012 377.184 105.879L368.842 105.612L369.547 109.346C369.899 111.346 370.369 113.746 370.722 114.679C370.957 115.612 370.487 117.879 369.782 119.746C368.607 122.679 368.725 123.479 370.369 124.812C373.189 127.346 374.952 133.346 373.542 136.279C372.954 137.612 370.604 140.012 368.372 141.479C364.495 144.279 364.495 144.412 365.552 150.279C366.962 157.746 366.257 160.279 362.615 160.279C358.855 160.279 353.802 153.879 352.628 147.612C351.805 142.679 351.335 142.279 347.105 141.479C342.053 140.679 338.41 139.079 330.303 134.679C327.601 133.212 323.371 131.746 321.139 131.612C317.496 131.212 313.736 128.146 313.619 125.479C313.619 124.946 312.326 124.146 310.681 123.746C305.864 122.412 306.686 115.479 312.561 107.746C315.146 104.412 318.084 101.612 319.024 101.612C319.846 101.612 320.316 100.812 319.964 99.7458C319.494 98.4125 320.904 97.7458 324.898 96.9458C328.893 96.2792 331.361 94.8125 334.416 91.4792C336.648 88.9458 338.058 86.2792 337.588 85.3458C337.001 84.2792 337.94 84.1458 340.995 84.6792C343.463 85.0792 345.343 84.9458 345.343 84.1458C345.343 83.4792 346.518 83.2125 348.045 83.6125C349.455 84.0125 351.688 83.4792 352.98 82.5458C354.86 80.8125 354.977 80.2792 353.685 78.4125C352.393 76.6792 352.393 75.8792 353.685 74.0125C354.977 72.2792 354.977 71.7458 353.92 71.3458C353.098 70.9458 352.393 69.8792 352.393 68.8125C352.393 67.4792 353.92 66.9458 358.15 66.9458C361.792 66.9458 364.142 66.2792 364.495 65.2125C364.847 64.1458 368.607 65.7458 376.597 70.2792C388.346 77.0792 391.284 80.6792 387.054 83.2125C385.996 83.8792 384.704 86.0125 384.117 87.7458C383.177 90.4125 382.237 90.9458 377.772 90.9458C372.014 90.9458 368.842 91.8792 368.842 93.7458C368.842 95.3458 373.542 95.2125 377.889 93.6125C380.944 92.4125 382.354 92.6792 387.171 95.6125C390.226 97.4792 393.164 99.4792 393.516 100.012C394.456 101.612 404.443 105.612 407.028 105.612C409.378 105.479 409.378 105.479 407.028 103.479C405.736 102.412 403.856 100.946 402.916 100.279C399.391 98.0125 402.798 97.6125 407.498 99.7458C412.316 101.879 415.841 101.612 415.841 99.0792C415.841 98.2792 413.491 95.7458 410.553 93.3458C405.383 88.9458 404.208 86.5458 406.441 84.9458C407.968 83.8792 415.841 86.6792 415.841 88.2792C415.841 90.5458 420.07 90.2792 422.655 87.7458C425.71 84.6792 425.945 82.9458 423.36 82.9458C422.42 82.9458 420.423 82.1458 419.013 81.3458C417.603 80.4125 413.256 78.4125 409.378 76.9458C403.856 74.8125 402.446 73.7458 402.681 71.8792C402.916 70.2792 402.211 69.0792 400.566 68.6792C398.921 68.1458 398.334 67.2125 398.804 65.8792C399.274 64.2792 398.686 64.1458 395.749 64.8125C392.694 65.4792 391.989 65.0792 391.519 62.8125C390.931 60.4125 390.226 60.1458 386.936 60.6792C383.882 61.2125 382.237 60.6792 379.652 58.2792C375.422 54.2792 370.487 52.8125 368.372 54.9458C367.432 55.7458 364.73 56.6792 362.497 56.9458C359.09 57.2125 358.267 56.8125 358.267 55.0792C358.267 49.4792 351.688 47.8792 345.108 51.7458C342.64 53.2125 341.935 54.1458 342.993 54.9458C344.05 55.7458 344.05 56.1458 342.993 56.9458C341.935 57.7458 341.935 58.1458 343.11 59.0792C343.933 59.6125 344.285 60.5458 343.815 61.0792C343.345 61.7458 341.465 60.5458 339.703 58.5458C336.883 55.3458 336.766 54.5458 338.058 52.1458C340.055 48.4125 339.703 48.1458 334.181 49.6125C327.131 51.3458 323.723 58.9458 329.481 60.0125C334.416 60.9458 335.473 61.8792 332.418 62.9458C329.833 63.7458 330.303 64.0125 335.708 65.3458C339.115 66.2792 344.05 66.9458 346.635 66.9458C349.573 66.9458 351.1 67.4792 350.63 68.2792C350.16 69.0792 348.398 69.4792 346.753 69.3458C344.638 69.0792 343.58 69.6125 343.58 70.9458C343.58 72.0125 341.818 74.9458 339.82 77.6125C336.648 81.4792 335.591 82.0125 333.946 80.8125C332.771 80.0125 331.596 77.8792 331.243 76.1458C330.538 72.9458 326.543 70.6792 326.543 73.4792C326.543 75.8792 323.723 75.0792 322.078 72.2792C321.256 70.8125 319.611 69.6125 318.436 69.6125C316.909 69.6125 316.086 68.2792 315.499 65.6125C315.146 63.0792 313.736 61.0792 311.856 60.0125C310.211 59.2125 309.036 57.8792 309.271 57.0792C309.624 55.7458 310.211 55.3458 317.731 51.4792L322.431 49.2125L317.731 48.1458C311.151 46.6791 309.741 46.8125 307.391 48.8125ZM329.598 88.2792C331.361 89.0792 332.418 90.0125 332.183 90.4125C331.243 91.4792 325.368 89.4792 325.368 88.1458C325.368 86.6792 325.721 86.6792 329.598 88.2792ZM438.165 146.812C438.165 148.012 435.345 149.612 433.23 149.612C432.525 149.612 432.525 148.812 433.465 147.612C435.11 145.479 438.165 144.946 438.165 146.812Z" fill="#427E1D"/>
<path d="M288.592 52.1458C286.947 55.7458 287.065 56.1458 289.649 57.3458C292.469 58.9458 300.694 58.0124 300.694 56.1458C300.694 55.4791 299.284 54.1458 297.522 53.0791C295.642 52.0124 294.937 51.0791 295.759 50.9458C298.814 50.9458 296.934 48.2791 293.762 48.2791C291.059 48.2791 289.884 49.2124 288.592 52.1458Z" fill="#427E1D"/>
<path d="M1161.35 49.6125C1161.71 50.2791 1162.88 50.9458 1163.82 50.9458C1164.76 50.9458 1165.23 50.2791 1164.88 49.6125C1164.53 48.8125 1163.35 48.2791 1162.41 48.2791C1161.47 48.2791 1161 48.8125 1161.35 49.6125Z" fill="#427E1D"/>
<path d="M268.735 50.5458C269.558 50.9458 270.615 50.8125 270.968 50.4125C271.438 50.0125 270.733 49.6125 269.44 49.7458C268.148 49.7458 267.795 50.1458 268.735 50.5458Z" fill="#427E1D"/>
<path d="M361.205 50.9458C361.557 51.6124 364.142 52.2791 366.845 52.2791C370.487 52.2791 371.309 51.8791 370.017 50.9458C367.667 49.2124 360.265 49.2124 361.205 50.9458Z" fill="#427E1D"/>
<path d="M230.196 52.5458C222.324 54.5458 220.327 58.9458 227.259 58.9458C229.491 58.9458 231.371 59.4791 231.371 60.2791C231.371 60.9458 230.196 61.6125 228.786 61.6125C226.319 61.7458 226.319 61.8791 228.199 63.0791C229.374 63.8791 231.841 64.0125 233.839 63.6125C237.364 62.6791 247.233 64.0125 246.176 65.2125C245.823 65.6125 242.181 66.0125 237.951 66.1458C233.839 66.1458 229.961 66.8125 229.491 67.3458C227.964 69.0791 231.606 70.9458 236.424 70.9458C238.774 70.9458 240.771 71.4791 240.771 72.2791C240.771 74.0125 252.991 73.8791 258.983 72.1458C264.388 70.5458 265.328 70.4125 272.495 71.6125C277.312 72.4125 277.9 72.1458 279.075 69.2125C280.25 66.2791 280.015 65.8791 276.725 64.5458C274.492 63.6125 272.495 61.4791 271.438 58.8125C270.498 56.2791 268.265 53.8791 265.915 52.8125C260.628 50.2791 260.393 50.4125 261.215 54.9458C261.685 57.8791 261.45 58.9458 260.275 58.9458C259.335 58.9458 258.278 58.0125 257.925 56.8125C257.338 55.0791 256.163 54.8125 251.933 55.3458C248.761 55.8791 246.411 55.6125 245.941 54.8125C245.471 53.8791 243.473 53.6125 241.241 54.0125C238.304 54.5458 237.246 54.2791 237.246 52.8125C237.246 50.6791 237.481 50.6791 230.196 52.5458Z" fill="#427E1D"/>
<path d="M2.01863 61.2124C2.72361 61.4791 4.13356 61.4791 4.95604 61.2124C5.66101 60.8124 5.07353 60.5457 3.42858 60.5457C1.78364 60.5457 1.19616 60.8124 2.01863 61.2124Z" fill="#427E1D"/>
<path d="M454.027 68.2792C454.379 68.9458 456.024 69.6125 457.669 69.6125C459.314 69.6125 460.254 69.0792 459.902 68.2792C459.549 67.4792 457.904 66.9458 456.259 66.9458C454.614 66.9458 453.674 67.4792 454.027 68.2792Z" fill="#427E1D"/>
<path d="M825.903 72.2792C825.903 72.9458 826.49 73.6125 827.077 73.6125C827.782 73.6125 828.252 72.9458 828.252 72.2792C828.252 71.4792 827.782 70.9458 827.077 70.9458C826.49 70.9458 825.903 71.4792 825.903 72.2792Z" fill="#427E1D"/>
<path d="M0.0211893 81.8791C0.138686 86.5458 0.373678 89.2125 0.726167 87.8791C1.43114 85.0791 5.30852 84.8125 6.24849 87.7458C6.71848 89.0791 7.77594 89.4791 9.3034 88.9458C10.7134 88.4125 12.9458 88.9458 14.3557 90.0125C15.7657 90.9458 18.7031 92.5458 20.818 93.3458C24.2254 94.6791 24.8129 94.5458 26.4579 91.6125C27.6328 89.6125 29.5128 88.2791 31.1577 88.2791C34.4476 88.2791 34.6826 87.2125 31.9802 84.8125C29.2778 82.5458 24.3429 82.4125 22.463 84.5458C21.288 85.8791 20.4655 85.4791 18.3506 82.8125C15.8832 79.4791 5.07353 73.6125 1.54864 73.6125C0.256182 73.6125 -0.096307 75.7458 0.0211893 81.8791Z" fill="#427E1D"/>
<path d="M373.189 77.2125C371.544 78.9458 372.484 80.4125 374.952 80.0125C378.124 79.4791 379.182 76.2791 376.244 76.2791C374.952 76.2791 373.542 76.6791 373.189 77.2125Z" fill="#427E1D"/>
<path d="M590.675 86.2791C590.323 86.6791 587.973 87.2125 585.505 87.4791C583.038 87.8791 578.925 88.5458 576.575 89.0791C573.521 89.6125 572.111 89.4791 572.111 88.4125C572.111 87.6125 571.288 86.9458 570.348 86.9458C569.056 86.9458 568.821 87.4791 569.643 89.2125C570.231 90.5458 571.053 92.6791 571.406 94.0125C572.111 96.5458 576.693 98.9458 580.805 98.9458C583.978 98.9458 598.077 94.0125 599.487 92.4125C599.957 91.8791 599.37 90.5458 598.312 89.3458C595.845 86.9458 591.615 85.2125 590.675 86.2791Z" fill="#427E1D"/>
<path d="M340.173 89.2125C338.763 90.8125 339.468 97.3458 341.23 98.9458C342.64 100.279 343.345 100.279 344.755 98.9458C345.695 98.0125 348.28 96.8125 350.395 96.4125L354.155 95.4791L350.395 93.2125C344.638 89.7458 340.995 88.4125 340.173 89.2125Z" fill="#427E1D"/>
<path d="M631.681 126.679C630.506 128.012 629.684 129.879 629.684 130.679C629.684 133.612 633.796 141.612 635.441 141.612C639.083 141.612 642.138 150.946 638.496 150.946C637.438 150.946 636.264 152.279 635.676 153.879C634.854 156.412 635.206 157.212 637.791 158.412L640.846 159.879L637.673 160.946C635.794 161.479 634.384 162.546 634.384 163.212C634.384 164.012 635.324 164.146 636.498 163.612C638.966 162.412 641.903 161.879 647.308 161.746C650.481 161.612 651.891 160.812 653.418 158.012C655.298 154.412 655.298 154.279 650.481 148.946C643.078 140.546 640.023 135.212 640.846 132.279C641.433 130.146 641.081 129.612 638.613 129.612C636.381 129.612 635.559 128.946 635.559 126.946C635.559 123.612 634.149 123.479 631.681 126.679Z" fill="#427E1D"/>
<path d="M93.3132 129.612C92.9607 130.279 93.4307 130.946 94.3707 130.946C95.3107 130.946 96.4856 130.279 96.8381 129.612C97.1906 128.812 96.7206 128.279 95.7807 128.279C94.8407 128.279 93.6657 128.812 93.3132 129.612Z" fill="#427E1D"/>
<path d="M691.957 138.946C691.957 139.612 692.544 140.279 693.132 140.279C693.837 140.279 694.307 139.612 694.307 138.946C694.307 138.146 693.837 137.612 693.132 137.612C692.544 137.612 691.957 138.146 691.957 138.946Z" fill="#427E1D"/>
<path d="M620.284 143.479C620.284 144.412 619.227 145.612 617.934 146.012C615.584 146.679 614.644 149.612 616.759 149.612C617.464 149.612 617.347 150.946 616.524 152.946C614.644 157.612 615.937 158.412 621.576 156.279C626.746 154.279 626.746 154.279 627.921 146.546C628.626 141.612 628.626 141.612 624.396 141.612C621.694 141.612 620.284 142.279 620.284 143.479Z" fill="#427E1D"/>
<path d="M1162.65 151.746C1162.29 152.946 1162.53 156.279 1163.23 159.213C1163.82 162.146 1164.41 166.146 1164.29 168.013C1163.94 173.879 1164.17 174.146 1167.23 170.546C1170.17 167.346 1170.17 167.079 1168.4 161.479C1167.46 158.279 1166.64 154.279 1166.64 152.546C1166.64 149.213 1163.7 148.546 1162.65 151.746Z" fill="#427E1D"/>
<path d="M441.69 168.279C439.81 172.679 438.165 176.546 438.165 176.946C438.165 178.279 454.497 177.612 455.202 176.279C456.612 173.612 454.497 169.612 451.677 169.612C450.149 169.612 448.504 168.946 448.152 168.279C447.682 167.479 446.86 167.212 446.272 167.612C445.685 168.146 445.567 166.679 445.92 164.279C447.095 158.146 445.567 159.479 441.69 168.279Z" fill="#427E1D"/>
<path d="M1162.53 194.946C1162.06 197.079 1161.24 199.213 1160.65 199.613C1158.89 200.946 1159.47 202.946 1161.71 202.946C1162.88 202.946 1164.41 203.613 1165 204.279C1165.82 205.213 1166.88 204.813 1168.4 202.946C1169.58 201.479 1171.22 200.279 1172.16 200.279C1172.99 200.279 1173.69 199.613 1173.69 198.946C1173.69 198.146 1172.99 197.613 1172.05 197.613C1171.11 197.613 1168.76 196.146 1166.88 194.279L1163.35 190.946L1162.53 194.946Z" fill="#427E1D"/>
<path d="M681.382 214.946C681.382 218.946 682.91 220.279 684.32 217.612C685.26 215.879 683.85 210.946 682.44 210.946C681.852 210.946 681.382 212.679 681.382 214.946Z" fill="#427E1D"/>
<path d="M1156.89 213.212C1156.42 213.612 1156.07 215.612 1156.07 217.479C1156.07 222.679 1152.07 229.079 1147.25 231.746C1144.9 232.946 1142.67 234.812 1142.32 235.746C1141.97 236.679 1139.27 237.879 1136.33 238.412C1130.92 239.212 1126.69 242.012 1126.69 244.679C1126.69 245.346 1128.34 245.612 1130.57 245.079L1134.33 244.279L1131.39 246.946C1127.87 250.146 1129.16 250.412 1133.16 247.479C1134.8 246.279 1137.03 245.612 1138.21 245.879C1139.38 246.279 1141.38 245.746 1142.55 244.812C1143.73 243.746 1145.61 242.946 1146.78 242.946C1147.84 242.946 1149.37 242.012 1150.19 240.946C1151.01 239.879 1152.66 238.946 1153.83 238.946C1156.42 238.946 1158.42 235.079 1158.42 230.146C1158.42 228.279 1159.47 224.546 1160.88 222.146C1162.76 218.679 1163 217.212 1161.94 214.946C1160.65 212.279 1158.3 211.479 1156.89 213.212Z" fill="#427E1D"/>
<path d="M697.832 226.679C697.832 227.746 701.944 230.812 703.471 230.946C706.526 230.946 704.764 227.212 701.356 226.679C699.477 226.279 697.832 226.412 697.832 226.679Z" fill="#427E1D"/>
<path d="M728.381 226.679C728.381 227.346 729.203 228.812 730.26 229.746C731.905 231.346 732.14 231.212 731.788 229.079C731.318 226.412 728.381 224.412 728.381 226.679Z" fill="#427E1D"/>
<path d="M1121.99 252.279C1121.99 255.079 1122.46 256.279 1123.52 255.879C1124.23 255.612 1124.93 254.012 1124.93 252.279C1124.93 250.546 1124.23 248.946 1123.52 248.546C1122.46 248.279 1121.99 249.479 1121.99 252.279Z" fill="#427E1D"/>
<path d="M1086.86 294.013C1086.04 295.213 1085.57 297.479 1085.8 299.213C1086.27 302.146 1086.39 302.146 1087.8 298.413C1089.45 293.746 1088.98 291.213 1086.86 294.013Z" fill="#427E1D"/>
<path d="M355.917 301.479C355.917 302.146 358.62 303.879 361.792 305.479C365.082 307.079 367.667 308.946 367.667 309.612C367.667 310.412 368.489 310.946 369.429 310.946C370.487 310.946 371.544 311.879 371.897 312.946C372.719 315.212 379.417 315.746 379.417 313.612C379.417 312.812 378.947 312.279 378.359 312.279C377.772 312.279 374.129 310.146 370.252 307.612C363.085 302.679 355.917 299.746 355.917 301.479Z" fill="#427E1D"/>
<path d="M390.931 317.212C388.699 317.879 387.994 322.279 389.991 323.612C390.579 324.012 393.281 323.746 395.984 322.946L400.918 321.346L397.511 318.812C395.631 317.479 393.869 316.412 393.516 316.412C393.164 316.546 391.989 316.812 390.931 317.212Z" fill="#427E1D"/>
<path d="M1044.8 317.212C1043.98 317.479 1043.27 318.679 1043.27 319.879C1043.27 322.679 1048.44 321.612 1048.91 318.546C1049.26 316.279 1047.74 315.746 1044.8 317.212Z" fill="#427E1D"/>
<path d="M1086.39 325.212C1086.04 326.546 1085.45 330.412 1084.98 333.746C1084.39 338.679 1084.63 340.146 1086.04 340.679C1087.1 341.212 1087.57 342.412 1087.21 343.612C1086.74 344.679 1087.1 345.612 1087.92 345.612C1088.98 345.612 1089.21 344.279 1088.62 341.479C1088.15 338.679 1088.62 336.012 1089.92 333.479C1091.56 330.412 1091.68 329.079 1090.5 326.412C1088.98 322.412 1087.1 321.879 1086.39 325.212Z" fill="#427E1D"/>
<path d="M939.169 372.946C937.994 378.012 939.522 382.946 942.224 382.946C944.926 382.946 945.396 378.812 943.399 373.079C941.989 368.679 940.109 368.679 939.169 372.946Z" fill="#427E1D"/>
<path d="M1101.2 372.546C1098.49 375.879 1098.38 382.146 1100.96 382.546C1103.55 383.079 1106.6 377.346 1105.9 373.212C1105.19 368.812 1104.37 368.679 1101.2 372.546Z" fill="#427E1D"/>
<path d="M1065.59 389.879C1062.07 394.279 1057.72 398.679 1055.96 399.612C1054.2 400.679 1052.55 402.812 1052.08 404.279C1051.5 406.146 1050.32 406.946 1047.74 406.946C1044.21 406.946 1044.09 406.946 1044.92 412.546C1045.39 415.746 1046.21 418.812 1046.91 419.479C1047.5 420.279 1047.97 422.146 1047.97 423.746C1047.97 427.612 1048.44 427.879 1056.9 429.612C1068.53 432.012 1068.3 432.012 1069.59 426.946C1070.29 424.412 1071.47 421.346 1072.06 420.279C1072.76 419.212 1073.82 416.412 1074.41 414.279C1075.11 412.012 1076.29 410.412 1077.11 410.546C1078.87 411.079 1078.87 410.812 1076.64 405.879C1074.29 400.546 1074.76 393.612 1077.7 390.812C1079.81 388.812 1079.69 388.679 1075.93 385.346L1072.06 382.012L1065.59 389.879Z" fill="#427E1D"/>
<path d="M995.097 389.079C995.097 389.612 996.977 392.412 999.327 395.479C1001.56 398.412 1004.03 401.746 1004.85 402.812C1006.61 405.346 1010.72 413.746 1014.37 422.412C1017.89 430.946 1026.94 442.012 1029.88 441.346C1033.28 440.679 1032.93 430.279 1029.52 426.679C1028 425.079 1026.82 423.079 1026.82 422.146C1026.82 421.346 1026 420.279 1025.06 419.746C1024.12 419.346 1023.3 417.746 1023.3 416.279C1023.3 414.812 1022.83 413.612 1022.24 413.612C1021.65 413.612 1020.59 411.879 1019.77 409.612C1018.95 407.479 1017.19 405.346 1015.78 404.812C1014.48 404.279 1010.37 400.412 1006.73 396.146C1002.73 391.346 999.092 388.279 997.565 388.279C996.155 388.279 995.097 388.679 995.097 389.079Z" fill="#427E1D"/>
<path d="M1126.81 418.812C1125.4 419.879 1125.4 420.412 1126.58 422.146C1128.46 424.812 1133.27 424.946 1134.1 422.412C1135.39 418.679 1130.45 416.279 1126.81 418.812Z" fill="#427E1D"/>
<path d="M1081.93 422.412C1081.34 424.546 1081.1 427.746 1081.46 429.612C1081.93 431.479 1082.4 434.546 1082.51 436.679C1083.1 442.946 1084.39 442.412 1084.39 435.879C1084.39 428.146 1085.8 427.079 1088.98 432.679C1091.33 436.812 1091.44 436.812 1091.44 433.612C1091.44 431.746 1090.62 428.812 1089.56 427.212C1087.8 424.279 1087.8 424.012 1089.8 422.146C1091.91 420.279 1091.91 420.146 1089.33 420.946C1087.8 421.479 1085.92 421.079 1084.98 420.279C1083.57 418.946 1082.98 419.346 1081.93 422.412Z" fill="#427E1D"/>
<path d="M1145.96 424.679C1144.79 425.479 1143.02 427.212 1142.2 428.546C1140.32 431.479 1136.92 431.612 1134.92 429.079C1133.27 426.679 1130.22 427.746 1130.22 430.679C1130.22 432.146 1130.57 432.412 1131.51 431.346C1132.45 430.279 1133.63 430.812 1135.74 433.079C1137.39 434.812 1139.5 436.279 1140.32 436.279C1143.49 436.279 1148.08 439.612 1149.72 443.079C1151.6 447.212 1151.95 452.279 1150.31 452.279C1149.72 452.279 1148.9 453.212 1148.55 454.412C1147.96 456.279 1148.43 456.546 1151.6 455.746C1154.42 455.079 1155.95 455.612 1157.95 457.746C1161.59 461.612 1166.76 460.679 1168.76 455.879C1169.58 453.879 1170.75 452.279 1171.34 452.279C1174.4 452.279 1178.27 455.212 1180.86 459.479C1183.91 464.679 1185.68 465.879 1188.38 464.812C1189.67 464.279 1188.97 462.546 1185.44 457.346C1180.27 450.012 1180.15 449.479 1182.15 447.212C1183.21 446.012 1182.97 445.479 1181.21 444.679C1180.04 444.146 1176.75 441.212 1174.04 438.012C1171.34 434.812 1168.05 432.279 1166.88 432.279C1165.58 432.279 1163.94 431.346 1163.12 430.279C1162.29 429.212 1160.77 428.279 1159.71 428.279C1158.65 428.279 1156.54 427.479 1154.89 426.546C1149.72 423.479 1148.31 423.212 1145.96 424.679Z" fill="#427E1D"/>
<path d="M1191.08 443.879C1191.79 444.146 1193.2 444.146 1194.02 443.879C1194.72 443.479 1194.14 443.212 1192.49 443.212C1190.85 443.212 1190.26 443.479 1191.08 443.879Z" fill="#427E1D"/>
<path d="M1033.87 446.679C1033.87 449.746 1037.4 452.146 1042.68 452.812C1045.97 453.212 1051.61 454.012 1055.37 454.546C1059.02 455.212 1062.07 455.212 1062.07 454.679C1062.07 454.146 1061.48 453.612 1060.78 453.612C1060.07 453.612 1058.19 452.412 1056.67 451.079C1054.79 449.346 1051.97 448.546 1048.44 448.546C1045.39 448.546 1042.45 447.879 1041.74 447.079C1040.22 445.346 1033.87 445.079 1033.87 446.679Z" fill="#427E1D"/>
<path d="M1098.49 463.079C1098.49 463.746 1099.08 464.012 1099.67 463.612C1100.37 463.212 1100.84 462.546 1100.84 462.146C1100.84 461.879 1100.37 461.612 1099.67 461.612C1099.08 461.612 1098.49 462.279 1098.49 463.079Z" fill="#427E1D"/>
<path d="M1163.23 472.679C1162.53 474.812 1161.94 480.279 1161.94 484.812C1161.94 496.279 1160.18 501.612 1156.54 501.612C1154.89 501.612 1153.36 500.679 1153.01 499.612C1152.54 498.546 1151.25 497.612 1150.07 497.612C1148.9 497.612 1147.84 496.946 1147.84 496.279C1147.84 495.479 1145.96 493.612 1143.73 492.146C1140.09 489.612 1137.86 484.279 1140.56 484.279C1141.14 484.279 1141.61 482.546 1141.61 480.546C1141.61 477.212 1141.03 476.546 1136.33 475.079C1133.27 474.146 1130.57 474.012 1129.75 474.679C1129.04 475.346 1127.05 476.279 1125.28 476.812C1123.17 477.346 1121.41 479.346 1119.64 483.612C1116.82 490.146 1114.83 491.079 1112.12 486.812C1109.77 482.946 1103.55 484.412 1101.67 489.346C1100.02 493.879 1096.14 498.946 1094.38 498.946C1093.56 498.946 1092.62 500.812 1092.15 502.946C1091.33 508.012 1086.86 513.212 1082.4 514.279C1072.88 516.679 1065.36 521.879 1062.42 528.279C1060.31 532.812 1060.07 534.412 1061.13 537.346C1061.72 539.346 1062.3 543.479 1062.19 546.412C1062.07 549.479 1062.89 553.612 1063.83 555.746C1064.77 557.879 1065.59 560.679 1065.59 561.879C1065.59 563.212 1066.42 566.679 1067.59 569.746C1069.12 574.279 1069.24 576.012 1068.18 579.479C1067 582.946 1067 583.879 1068.77 585.212C1071.59 587.746 1076.17 587.346 1081.46 584.279C1084.16 582.679 1088.39 581.612 1091.68 581.612C1094.73 581.612 1097.32 581.079 1097.32 580.279C1097.32 577.212 1113.42 570.946 1121.17 570.946C1129.04 570.946 1133.74 573.479 1137.15 579.612L1140.44 585.479L1144.2 581.479C1148.78 576.812 1149.49 576.679 1148.55 580.812C1148.19 582.546 1148.19 584.279 1148.78 584.546C1150.31 585.346 1156.07 595.746 1156.07 597.879C1156.07 600.812 1158.18 602.412 1164.06 604.279C1168.4 605.612 1169.58 605.479 1171.34 603.612C1173.1 601.746 1173.46 601.746 1174.87 603.612C1176.51 605.879 1180.27 606.279 1181.33 604.279C1181.68 603.612 1184.15 602.412 1186.62 601.612C1190.14 600.546 1191.32 599.479 1191.32 597.479C1191.32 594.279 1196.84 579.079 1198.95 576.279C1199.89 575.212 1201.42 570.146 1202.6 565.079C1205.3 552.946 1203.77 542.412 1198.48 536.012C1196.49 533.612 1194.49 530.546 1194.14 529.212C1193.78 528.012 1192.96 526.946 1192.37 526.946C1191.79 526.946 1190.14 524.412 1188.85 521.212C1187.44 518.012 1184.62 514.012 1182.39 512.412C1180.15 510.679 1178.04 507.746 1177.69 505.746C1175.57 494.546 1172.99 486.412 1171.22 486.012C1170.05 485.612 1168.87 483.479 1168.4 481.212C1168.05 478.812 1166.99 475.079 1166.17 472.946L1164.53 468.946L1163.23 472.679Z" fill="#427E1D"/>
<path d="M826.96 477.612C826.842 481.212 819.323 491.612 815.445 493.746C810.158 496.546 809.453 498.412 810.276 507.079C810.745 512.546 810.393 515.612 808.983 518.812C807.221 522.412 807.221 524.146 808.278 530.412C809.806 538.679 812.273 541.079 816.973 538.946C818.618 538.279 820.028 537.479 820.028 537.212C820.028 536.946 821.79 529.746 824.023 521.346C826.138 512.946 828.37 502.812 828.84 498.812C829.31 494.812 830.132 491.346 830.602 490.946C831.895 490.012 830.132 479.212 828.37 477.212C827.43 476.146 827.077 476.279 826.96 477.612Z" fill="#427E1D"/>
<path d="M1281.79 603.346C1281.79 605.079 1281.08 607.212 1280.38 608.146C1279.09 609.479 1279.2 610.012 1280.97 611.079C1282.02 611.879 1282.96 613.879 1282.96 615.612C1282.96 617.479 1283.43 618.946 1284.02 618.946C1285.31 618.946 1288.84 612.946 1288.84 610.679C1288.84 609.746 1289.9 608.146 1291.19 607.212C1294.6 604.812 1294.13 602.946 1290.13 602.946C1288.13 602.946 1286.25 602.279 1285.9 601.612C1284.49 599.079 1281.79 600.279 1281.79 603.346Z" fill="#427E1D"/>
<path d="M1173.69 618.413C1173.69 619.879 1177.57 628.279 1178.51 629.079C1180.27 630.279 1185.68 623.479 1185.21 620.679C1184.97 619.213 1183.09 618.546 1179.33 618.413C1176.16 618.279 1173.69 618.279 1173.69 618.413Z" fill="#427E1D"/>
<path d="M1270.27 622.812C1268.75 625.746 1265.69 629.479 1263.22 631.079C1258.52 634.279 1252.41 640.279 1252.41 641.612C1252.41 642.146 1254.29 643.212 1256.64 644.012C1260.17 645.212 1261.46 645.079 1263.69 643.346C1265.22 642.279 1266.51 640.546 1266.51 639.479C1266.51 638.546 1269.22 634.546 1272.39 630.679C1275.68 626.812 1278.26 623.079 1278.26 622.412C1278.26 621.212 1274.74 617.746 1273.45 617.612C1273.09 617.612 1271.68 620.012 1270.27 622.812Z" fill="#427E1D"/>
<path d="M397.629 677.612C397.276 678.279 397.394 678.946 397.981 678.946C398.569 678.946 399.156 680.412 399.156 682.279C399.156 684.146 398.569 685.612 397.864 685.612C397.041 685.612 397.041 686.012 397.746 686.812C398.334 687.479 401.271 687.746 404.326 687.346L409.966 686.546L405.266 681.479C400.449 676.146 398.921 675.346 397.629 677.612Z" fill="#427E1D"/>
<g filter="url(#filter1_d_1_75)">
<path d="M969.395 719H519.5H512.197C501.187 719 492.889 708.99 494.93 698.17L495.03 697.64C495.66 694.301 497.341 691.251 499.828 688.936L503.464 685.551C507.446 681.843 513.601 681.791 517.646 685.431L519.545 687.141C522.828 690.095 527.888 689.813 530.822 686.512L532.571 684.546C535.088 681.713 539.589 681.969 541.77 685.068C544.224 688.555 549.459 688.351 551.633 684.682L552.118 683.864C553.77 681.076 557.23 679.923 560.121 681.388C565.629 684.178 572.554 688.375 575.5 692.5C578.591 696.827 580.289 693.074 581.054 688.991C581.47 686.777 580.662 684.548 579.174 682.857C575.122 678.252 577.204 670.999 583.082 669.244L598.559 664.624C601.787 663.661 604 660.691 604 657.321C604 653.884 606.3 650.873 609.616 649.968L622.718 646.395C624.896 645.801 627.144 645.5 629.402 645.5H631.764C640.076 645.5 648.211 643.093 655.185 638.569L659.955 635.475C661.968 634.17 663.724 632.505 665.135 630.564L666.733 628.367C669.414 624.681 673.697 622.5 678.254 622.5H687C690.038 622.5 692.5 624.962 692.5 628C692.5 631.038 694.962 633.5 698 633.5H705.5H715.936C718.258 633.5 720.525 634.203 722.439 635.515L731.271 641.571C733.968 643.421 733.872 647.433 731.09 649.152L715.903 658.538C713.085 660.279 715.193 664.595 718.298 663.445C719.06 663.163 719.907 663.233 720.613 663.636L731.334 669.762C734.91 671.806 739.228 672.09 743.042 670.534L755.962 665.26C758.606 664.181 761.5 666.126 761.5 668.981C761.5 671.201 763.299 673 765.519 673H781.169C784.787 673 788.139 671.102 790 668C791.861 664.898 795.213 663 798.831 663H802.287C807.097 663 811.582 665.434 814.204 669.467L815.349 671.23C816.1 672.385 816.5 673.733 816.5 675.111C816.5 677.535 817.732 679.792 819.771 681.103L831.92 688.913C834.33 690.462 837.5 688.732 837.5 685.866C837.5 682.954 840.763 681.233 843.167 682.877L846.416 685.1C846.804 685.366 847.223 685.582 847.664 685.745L858.537 689.75C862.157 691.084 866 688.405 866 684.546C866 681.483 868.483 679 871.546 679H874.5C876.157 679 877.5 677.657 877.5 676C877.5 674.343 878.843 673 880.5 673H883.5H901.368C902.546 673 903.5 673.955 903.5 675.132C903.5 676.811 905.351 677.831 906.77 676.934L911.315 674.064C912.398 673.38 913.7 673.129 914.96 673.362L938.457 677.7C942.959 678.531 946.933 681.15 949.473 684.959C952.613 689.67 957.901 692.5 963.563 692.5H972.391C975.357 692.5 978.216 693.605 980.41 695.6C984.774 699.567 985.581 706.128 982.31 711.034L981.218 712.672C978.583 716.626 974.146 719 969.395 719Z" fill="#427E1D"/>
</g>
<defs>
<filter id="filter0_d_1_75" x="586.253" y="29.7433" width="717.747" height="563.544" filterUnits="userSpaceOnUse" color-interpolation-filters="sRGB">
<feFlood flood-opacity="0" result="BackgroundImageFix"/>
<feColorMatrix in="SourceAlpha" type="matrix" values="0 0 0 0 0 0 0 0 0 0 0 0 0 0 0 0 0 0 127 0" result="hardAlpha"/>
<feOffset dy="4"/>
<feGaussianBlur stdDeviation="2"/>
<feComposite in2="hardAlpha" operator="out"/>
<feColorMatrix type="matrix" values="0 0 0 0 0 0 0 0 0 0 0 0 0 0 0 0 0 0 0.25 0"/>
<feBlend mode="normal" in2="BackgroundImageFix" result="effect1_dropShadow_1_75"/>
<feBlend mode="normal" in="SourceGraphic" in2="effect1_dropShadow_1_75" result="shape"/>
</filter>
<filter id="filter1_d_1_75" x="490.62" y="622.5" width="497.693" height="104.5" filterUnits="userSpaceOnUse" color-interpolation-filters="sRGB">
<feFlood flood-opacity="0" result="BackgroundImageFix"/>
<feColorMatrix in="SourceAlpha" type="matrix" values="0 0 0 0 0 0 0 0 0 0 0 0 0 0 0 0 0 0 127 0" result="hardAlpha"/>
<feOffset dy="4"/>
<feGaussianBlur stdDeviation="2"/>
<feComposite in2="hardAlpha" operator="out"/>
<feColorMatrix type="matrix" values="0 0 0 0 0 0 0 0 0 0 0 0 0 0 0 0 0 0 0.25 0"/>
<feBlend mode="normal" in2="BackgroundImageFix" result="effect1_dropShadow_1_75"/>
<feBlend mode="normal" in="SourceGraphic" in2="effect1_dropShadow_1_75" result="shape"/>
</filter>
</defs>
</svg>
